# Blender v2.91.0 OBJ File: 'stage3.blend'
# www.blender.org
mtllib goal.mtl
o Torus.001
v -0.000000 -1.100000 -0.000000
v -0.284701 -1.062518 0.000000
v -0.258819 -0.965926 -0.100000
v -0.000000 -1.000000 -0.100000
v -0.232937 -0.869333 -0.000000
v -0.000000 -0.900000 -0.000000
v -0.258819 -0.965926 0.100000
v -0.000000 -1.000000 0.100000
v -0.550000 -0.952628 0.000000
v -0.500000 -0.866025 -0.100000
v -0.450000 -0.779423 0.000000
v -0.500000 -0.866025 0.100000
v -0.777818 -0.777817 -0.000000
v -0.707107 -0.707107 -0.100000
v -0.636396 -0.636396 0.000000
v -0.707107 -0.707107 0.100000
v -0.952628 -0.550000 0.000000
v -0.866025 -0.500000 -0.100000
v -0.779423 -0.450000 0.000000
v -0.866025 -0.500000 0.100000
v -1.062518 -0.284701 0.000000
v -0.965926 -0.258819 -0.100000
v -0.869333 -0.232937 0.000000
v -0.965926 -0.258819 0.100000
v -1.100000 0.000000 0.000000
v -1.000000 0.000000 -0.100000
v -0.900000 0.000000 0.000000
v -1.000000 0.000000 0.100000
v -1.062518 0.284701 0.000000
v -0.965926 0.258819 -0.100000
v -0.869333 0.232937 0.000000
v -0.965926 0.258819 0.100000
v -0.952628 0.550000 0.000000
v -0.866026 0.500000 -0.100000
v -0.779423 0.450000 0.000000
v -0.866026 0.500000 0.100000
v -0.777817 0.777818 0.000000
v -0.707107 0.707107 -0.100000
v -0.636396 0.636396 0.000000
v -0.707107 0.707107 0.100000
v -0.550000 0.952628 0.000000
v -0.500000 0.866025 -0.100000
v -0.450000 0.779423 0.000000
v -0.500000 0.866025 0.100000
v -0.284701 1.062518 -0.000000
v -0.258819 0.965926 -0.100000
v -0.232937 0.869333 -0.000000
v -0.258819 0.965926 0.100000
v 0.000000 1.100000 -0.000000
v 0.000000 1.000000 -0.100000
v 0.000000 0.900000 -0.000000
v 0.000000 1.000000 0.100000
v 0.284701 1.062518 -0.000000
v 0.258819 0.965926 -0.100000
v 0.232937 0.869333 -0.000000
v 0.258819 0.965926 0.100000
v 0.550000 0.952628 -0.000000
v 0.500000 0.866026 -0.100000
v 0.450000 0.779423 -0.000000
v 0.500000 0.866026 0.100000
v 0.777817 0.777818 -0.000000
v 0.707107 0.707107 -0.100000
v 0.636396 0.636396 -0.000000
v 0.707107 0.707107 0.100000
v 0.952628 0.550000 -0.000000
v 0.866026 0.500000 -0.100000
v 0.779423 0.450000 -0.000000
v 0.866026 0.500000 0.100000
v 1.062518 0.284701 -0.000000
v 0.965926 0.258819 -0.100000
v 0.869333 0.232937 -0.000000
v 0.965926 0.258819 0.100000
v 1.100000 -0.000000 -0.000000
v 1.000000 -0.000000 -0.100000
v 0.900000 -0.000000 -0.000000
v 1.000000 -0.000000 0.100000
v 1.062519 -0.284700 -0.000000
v 0.965926 -0.258819 -0.100000
v 0.869333 -0.232937 -0.000000
v 0.965926 -0.258819 0.100000
v 0.952628 -0.550000 -0.000000
v 0.866025 -0.500000 -0.100000
v 0.779423 -0.450000 -0.000000
v 0.866025 -0.500000 0.100000
v 0.777818 -0.777817 -0.000000
v 0.707107 -0.707106 -0.100000
v 0.636396 -0.636396 -0.000000
v 0.707107 -0.707106 0.100000
v 0.550000 -0.952628 -0.000000
v 0.500000 -0.866025 -0.100000
v 0.450000 -0.779423 -0.000000
v 0.500000 -0.866025 0.100000
v 0.284701 -1.062518 -0.000000
v 0.258819 -0.965926 -0.100000
v 0.232937 -0.869333 -0.000000
v 0.258819 -0.965926 0.100000
vt 0.195313 0.773438
vt 0.195313 0.773438
vt 0.195313 0.773438
vt 0.195313 0.773438
vt 0.738281 0.757812
vt 0.738281 0.757812
vt 0.738281 0.757812
vt 0.738281 0.757812
vt 0.273438 0.730469
vt 0.273438 0.730469
vt 0.273438 0.730469
vt 0.273438 0.730469
vt 0.792969 0.734375
vt 0.792969 0.734375
vt 0.792969 0.734375
vt 0.792969 0.734375
vt 0.738281 0.757812
vt 0.738281 0.757812
vt 0.738281 0.757812
vt 0.195313 0.773438
vt 0.195313 0.773438
vt 0.195313 0.773438
vt 0.792969 0.734375
vt 0.792969 0.734375
vt 0.792969 0.734375
vt 0.273438 0.730469
vt 0.273438 0.730469
vt 0.273438 0.730469
vt 0.195313 0.773438
vt 0.195313 0.773438
vt 0.195313 0.773438
vt 0.738281 0.757812
vt 0.738281 0.757812
vt 0.738281 0.757812
vt 0.273438 0.730469
vt 0.273438 0.730469
vt 0.273438 0.730469
vt 0.792969 0.734375
vt 0.792969 0.734375
vt 0.792969 0.734375
vt 0.738281 0.757812
vt 0.738281 0.757812
vt 0.738281 0.757812
vt 0.195313 0.773438
vt 0.195313 0.773438
vt 0.195313 0.773438
vt 0.792969 0.734375
vt 0.792969 0.734375
vt 0.792969 0.734375
vt 0.273438 0.730469
vt 0.273438 0.730469
vt 0.273438 0.730469
vt 0.195313 0.773438
vt 0.195313 0.773438
vt 0.195313 0.773438
vt 0.738281 0.757812
vt 0.738281 0.757812
vt 0.738281 0.757812
vt 0.273438 0.730469
vt 0.273438 0.730469
vt 0.273438 0.730469
vt 0.792969 0.734375
vt 0.792969 0.734375
vt 0.792969 0.734375
vt 0.738281 0.757812
vt 0.738281 0.757812
vt 0.738281 0.757812
vt 0.195313 0.773438
vt 0.195313 0.773438
vt 0.195313 0.773438
vt 0.792969 0.734375
vt 0.792969 0.734375
vt 0.792969 0.734375
vt 0.273438 0.730469
vt 0.273438 0.730469
vt 0.273438 0.730469
vt 0.195313 0.773438
vt 0.195313 0.773438
vt 0.195313 0.773438
vt 0.738281 0.757812
vt 0.738281 0.757812
vt 0.738281 0.757812
vt 0.273438 0.730469
vt 0.273438 0.730469
vt 0.273438 0.730469
vt 0.792969 0.734375
vt 0.792969 0.734375
vt 0.792969 0.734375
vt 0.738281 0.757812
vt 0.738281 0.757812
vt 0.738281 0.757812
vt 0.195313 0.773438
vt 0.195313 0.773438
vt 0.195313 0.773438
vt 0.792969 0.734375
vt 0.792969 0.734375
vt 0.792969 0.734375
vt 0.273438 0.730469
vt 0.273438 0.730469
vt 0.273438 0.730469
vt 0.164063 0.750000
vt 0.164063 0.750000
vt 0.164063 0.750000
vt 0.164063 0.750000
vt 0.730469 0.667969
vt 0.730469 0.667969
vt 0.730469 0.667969
vt 0.730469 0.667969
vt 0.273438 0.730469
vt 0.273438 0.730469
vt 0.273438 0.730469
vt 0.792969 0.734375
vt 0.792969 0.734375
vt 0.792969 0.734375
vt 0.761719 0.746094
vt 0.761719 0.746094
vt 0.761719 0.746094
vt 0.761719 0.746094
vt 0.214844 0.734375
vt 0.214844 0.734375
vt 0.214844 0.734375
vt 0.214844 0.734375
vt 0.792969 0.734375
vt 0.792969 0.734375
vt 0.792969 0.734375
vt 0.273438 0.730469
vt 0.273438 0.730469
vt 0.273438 0.730469
vt 0.028740 0.872047
vt 0.028740 0.872047
vt 0.028740 0.872047
vt 0.028740 0.872047
vt 0.816406 0.734375
vt 0.816406 0.734375
vt 0.816406 0.734375
vt 0.816406 0.734375
vt 0.273438 0.730469
vt 0.273438 0.730469
vt 0.273438 0.730469
vt 0.792969 0.734375
vt 0.792969 0.734375
vt 0.792969 0.734375
vt 0.860218 0.788343
vt 0.860218 0.788343
vt 0.860218 0.788343
vt 0.860218 0.788343
vt 0.280291 0.773462
vt 0.280291 0.773462
vt 0.280291 0.773462
vt 0.280291 0.773462
vt 0.792969 0.734375
vt 0.792969 0.734375
vt 0.792969 0.734375
vt 0.273438 0.730469
vt 0.273438 0.730469
vt 0.273438 0.730469
vt 0.276384 0.744506
vt 0.276384 0.744506
vt 0.276384 0.744506
vt 0.276384 0.744506
vt 0.805592 0.735328
vt 0.805592 0.735328
vt 0.805592 0.735328
vt 0.805592 0.735328
vt 0.273438 0.730469
vt 0.273438 0.730469
vt 0.273438 0.730469
vt 0.792969 0.734375
vt 0.792969 0.734375
vt 0.792969 0.734375
vt 0.738281 0.757812
vt 0.738281 0.757812
vt 0.738281 0.757812
vt 0.738281 0.757812
vt 0.195313 0.773438
vt 0.195313 0.773438
vt 0.195313 0.773438
vt 0.195313 0.773438
vt 0.792969 0.734375
vt 0.792969 0.734375
vt 0.792969 0.734375
vt 0.273438 0.730469
vt 0.273438 0.730469
vt 0.273438 0.730469
vt 0.195313 0.773438
vt 0.195313 0.773438
vt 0.195313 0.773438
vt 0.738281 0.757812
vt 0.738281 0.757812
vt 0.738281 0.757812
vt 0.273438 0.730469
vt 0.273438 0.730469
vt 0.273438 0.730469
vt 0.792969 0.734375
vt 0.792969 0.734375
vt 0.792969 0.734375
vt 0.738281 0.757812
vt 0.738281 0.757812
vt 0.738281 0.757812
vt 0.195313 0.773438
vt 0.195313 0.773438
vt 0.195313 0.773438
vt 0.792969 0.734375
vt 0.792969 0.734375
vt 0.792969 0.734375
vt 0.273438 0.730469
vt 0.273438 0.730469
vt 0.273438 0.730469
vt 0.195313 0.773438
vt 0.195313 0.773438
vt 0.195313 0.773438
vt 0.738281 0.757812
vt 0.738281 0.757812
vt 0.738281 0.757812
vt 0.273438 0.730469
vt 0.273438 0.730469
vt 0.273438 0.730469
vt 0.792969 0.734375
vt 0.792969 0.734375
vt 0.792969 0.734375
vt 0.738281 0.757812
vt 0.738281 0.757812
vt 0.738281 0.757812
vt 0.195313 0.773438
vt 0.195313 0.773438
vt 0.195313 0.773438
vt 0.792969 0.734375
vt 0.792969 0.734375
vt 0.792969 0.734375
vt 0.273438 0.730469
vt 0.273438 0.730469
vt 0.273438 0.730469
vt 0.195313 0.773438
vt 0.195313 0.773438
vt 0.195313 0.773438
vt 0.738281 0.757812
vt 0.738281 0.757812
vt 0.738281 0.757812
vt 0.273438 0.730469
vt 0.273438 0.730469
vt 0.273438 0.730469
vt 0.792969 0.734375
vt 0.792969 0.734375
vt 0.792969 0.734375
vt 0.738281 0.757812
vt 0.738281 0.757812
vt 0.738281 0.757812
vt 0.195313 0.773438
vt 0.195313 0.773438
vt 0.195313 0.773438
vt 0.792969 0.734375
vt 0.792969 0.734375
vt 0.792969 0.734375
vt 0.273438 0.730469
vt 0.273438 0.730469
vt 0.273438 0.730469
vt 0.195313 0.773438
vt 0.195313 0.773438
vt 0.195313 0.773438
vt 0.738281 0.757812
vt 0.738281 0.757812
vt 0.738281 0.757812
vt 0.273438 0.730469
vt 0.273438 0.730469
vt 0.273438 0.730469
vt 0.792969 0.734375
vt 0.792969 0.734375
vt 0.792969 0.734375
vt 0.738281 0.757812
vt 0.738281 0.757812
vt 0.738281 0.757812
vt 0.195313 0.773438
vt 0.195313 0.773438
vt 0.195313 0.773438
vt 0.792969 0.734375
vt 0.792969 0.734375
vt 0.792969 0.734375
vt 0.273438 0.730469
vt 0.273438 0.730469
vt 0.273438 0.730469
vt 0.195313 0.773438
vt 0.195313 0.773438
vt 0.195313 0.773438
vt 0.738281 0.757812
vt 0.738281 0.757812
vt 0.738281 0.757812
vt 0.273438 0.730469
vt 0.273438 0.730469
vt 0.273438 0.730469
vt 0.792969 0.734375
vt 0.792969 0.734375
vt 0.792969 0.734375
vt 0.738281 0.757812
vt 0.738281 0.757812
vt 0.195313 0.773438
vt 0.195313 0.773438
vt 0.792969 0.734375
vt 0.792969 0.734375
vt 0.273438 0.730469
vt 0.273438 0.730469
vn -0.0927 -0.7041 -0.7041
vn 0.0927 0.7041 -0.7041
vn 0.0927 0.7041 0.7041
vn -0.0927 -0.7041 0.7041
vn -0.2718 -0.6561 -0.7041
vn 0.2718 0.6561 -0.7041
vn 0.2718 0.6561 0.7041
vn -0.2718 -0.6561 0.7041
vn -0.4323 -0.5634 -0.7041
vn 0.4323 0.5634 -0.7041
vn 0.4323 0.5634 0.7041
vn -0.4323 -0.5634 0.7041
vn -0.5634 -0.4323 -0.7041
vn 0.5634 0.4323 -0.7041
vn 0.5634 0.4323 0.7041
vn -0.5634 -0.4323 0.7041
vn -0.6561 -0.2718 -0.7041
vn 0.6561 0.2718 -0.7041
vn 0.6561 0.2718 0.7041
vn -0.6561 -0.2718 0.7041
vn -0.7041 -0.0927 -0.7041
vn 0.7041 0.0927 -0.7041
vn 0.7041 0.0927 0.7041
vn -0.7041 -0.0927 0.7041
vn -0.7041 0.0927 -0.7041
vn 0.7041 -0.0927 -0.7041
vn 0.7041 -0.0927 0.7041
vn -0.7041 0.0927 0.7041
vn -0.6561 0.2718 -0.7041
vn 0.6561 -0.2718 -0.7041
vn 0.6561 -0.2718 0.7041
vn -0.6561 0.2718 0.7041
vn -0.5634 0.4323 -0.7041
vn 0.5634 -0.4323 -0.7041
vn 0.5634 -0.4323 0.7041
vn -0.5634 0.4323 0.7041
vn -0.4323 0.5634 -0.7041
vn 0.4323 -0.5634 -0.7041
vn 0.4323 -0.5634 0.7041
vn -0.4323 0.5634 0.7041
vn -0.2718 0.6561 -0.7041
vn 0.2718 -0.6561 -0.7041
vn 0.2718 -0.6561 0.7041
vn -0.2718 0.6561 0.7041
vn -0.0927 0.7041 -0.7041
vn 0.0927 -0.7041 -0.7041
vn 0.0927 -0.7041 0.7041
vn -0.0927 0.7041 0.7041
usemtl Material.001
s 1
f 1/1/1 2/2/1 3/3/1 4/4/1
f 4/5/2 3/6/2 5/7/2 6/8/2
f 6/9/3 5/10/3 7/11/3 8/12/3
f 8/13/4 7/14/4 2/15/4 1/16/4
f 2/17/5 9/18/5 10/19/5 3/6/5
f 3/3/6 10/20/6 11/21/6 5/22/6
f 5/23/7 11/24/7 12/25/7 7/14/7
f 7/11/8 12/26/8 9/27/8 2/28/8
f 9/29/9 13/30/9 14/31/9 10/20/9
f 10/19/10 14/32/10 15/33/10 11/34/10
f 11/35/11 15/36/11 16/37/11 12/26/11
f 12/25/12 16/38/12 13/39/12 9/40/12
f 13/41/13 17/42/13 18/43/13 14/32/13
f 14/31/14 18/44/14 19/45/14 15/46/14
f 15/47/15 19/48/15 20/49/15 16/38/15
f 16/37/16 20/50/16 17/51/16 13/52/16
f 17/53/17 21/54/17 22/55/17 18/44/17
f 18/43/18 22/56/18 23/57/18 19/58/18
f 19/59/19 23/60/19 24/61/19 20/50/19
f 20/49/20 24/62/20 21/63/20 17/64/20
f 21/65/21 25/66/21 26/67/21 22/56/21
f 22/55/22 26/68/22 27/69/22 23/70/22
f 23/71/23 27/72/23 28/73/23 24/62/23
f 24/61/24 28/74/24 25/75/24 21/76/24
f 25/77/25 29/78/25 30/79/25 26/68/25
f 26/67/26 30/80/26 31/81/26 27/82/26
f 27/83/27 31/84/27 32/85/27 28/74/27
f 28/73/28 32/86/28 29/87/28 25/88/28
f 29/89/29 33/90/29 34/91/29 30/80/29
f 30/79/30 34/92/30 35/93/30 31/94/30
f 31/95/31 35/96/31 36/97/31 32/86/31
f 32/85/32 36/98/32 33/99/32 29/100/32
f 33/101/33 37/102/33 38/103/33 34/104/33
f 34/105/34 38/106/34 39/107/34 35/108/34
f 35/109/35 39/110/35 40/111/35 36/98/35
f 36/97/36 40/112/36 37/113/36 33/114/36
f 37/115/37 41/116/37 42/117/37 38/118/37
f 38/119/38 42/120/38 43/121/38 39/122/38
f 39/123/39 43/124/39 44/125/39 40/112/39
f 40/111/40 44/126/40 41/127/40 37/128/40
f 41/129/41 45/130/41 46/131/41 42/132/41
f 42/133/42 46/134/42 47/135/42 43/136/42
f 43/137/43 47/138/43 48/139/43 44/126/43
f 44/125/44 48/140/44 45/141/44 41/142/44
f 45/143/45 49/144/45 50/145/45 46/146/45
f 46/147/46 50/148/46 51/149/46 47/150/46
f 47/151/47 51/152/47 52/153/47 48/140/47
f 48/139/48 52/154/48 49/155/48 45/156/48
f 49/157/2 53/158/2 54/159/2 50/160/2
f 50/161/1 54/162/1 55/163/1 51/164/1
f 51/165/4 55/166/4 56/167/4 52/154/4
f 52/153/3 56/168/3 53/169/3 49/170/3
f 53/171/6 57/172/6 58/173/6 54/174/6
f 54/175/5 58/176/5 59/177/5 55/178/5
f 55/179/8 59/180/8 60/181/8 56/168/8
f 56/167/7 60/182/7 57/183/7 53/184/7
f 57/185/10 61/186/10 62/187/10 58/176/10
f 58/173/9 62/188/9 63/189/9 59/190/9
f 59/191/12 63/192/12 64/193/12 60/182/12
f 60/181/11 64/194/11 61/195/11 57/196/11
f 61/197/14 65/198/14 66/199/14 62/188/14
f 62/187/13 66/200/13 67/201/13 63/202/13
f 63/203/16 67/204/16 68/205/16 64/194/16
f 64/193/15 68/206/15 65/207/15 61/208/15
f 65/209/18 69/210/18 70/211/18 66/200/18
f 66/199/17 70/212/17 71/213/17 67/214/17
f 67/215/20 71/216/20 72/217/20 68/206/20
f 68/205/19 72/218/19 69/219/19 65/220/19
f 69/221/22 73/222/22 74/223/22 70/212/22
f 70/211/21 74/224/21 75/225/21 71/226/21
f 71/227/24 75/228/24 76/229/24 72/218/24
f 72/217/23 76/230/23 73/231/23 69/232/23
f 73/233/26 77/234/26 78/235/26 74/224/26
f 74/223/25 78/236/25 79/237/25 75/238/25
f 75/239/28 79/240/28 80/241/28 76/230/28
f 76/229/27 80/242/27 77/243/27 73/244/27
f 77/245/30 81/246/30 82/247/30 78/236/30
f 78/235/29 82/248/29 83/249/29 79/250/29
f 79/251/32 83/252/32 84/253/32 80/242/32
f 80/241/31 84/254/31 81/255/31 77/256/31
f 81/257/34 85/258/34 86/259/34 82/248/34
f 82/247/33 86/260/33 87/261/33 83/262/33
f 83/263/36 87/264/36 88/265/36 84/254/36
f 84/253/35 88/266/35 85/267/35 81/268/35
f 85/269/38 89/270/38 90/271/38 86/260/38
f 86/259/37 90/272/37 91/273/37 87/274/37
f 87/275/40 91/276/40 92/277/40 88/266/40
f 88/265/39 92/278/39 89/279/39 85/280/39
f 89/281/42 93/282/42 94/283/42 90/272/42
f 90/271/41 94/284/41 95/285/41 91/286/41
f 91/287/44 95/288/44 96/289/44 92/278/44
f 92/277/43 96/290/43 93/291/43 89/292/43
f 93/293/46 1/294/46 4/5/46 94/284/46
f 94/283/45 4/4/45 6/295/45 95/296/45
f 95/297/48 6/298/48 8/13/48 96/290/48
f 96/289/47 8/12/47 1/299/47 93/300/47
